<svg xmlns="http://www.w3.org/2000/svg" version="1.1" xmlns:xlink="http://www.w3.org/1999/xlink" xmlns:svgjs="http://svgjs.com/svgjs" id="Pattern1627SvgRootPreview" width="100%" height="100%"><defs><pattern x="0" y="0" width="1" height="1" patternUnits="userSpaceOnUse" id="Pattern1627Layer1"><g id="PatternRootContent1"><g id="Pattern1627Layer1background"><rect width="1" height="1" id="Pattern1627Background1" class="color_1 fill_color_1" fill="#e1fcc5"></rect></g></g></pattern><pattern x="0" y="0" width="35" height="40" patternUnits="userSpaceOnUse" id="Pattern1627Layer2" patternTransform="matrix(1,0,0,1,0,0)"><g id="PatternRootContent2"><g id="Pattern1627Layer2Element2"><use xlink:href="#Pattern1627Element2" x="22.57503890991211" y="-29.811504364013672" transform="translate(35, -10) scale(1) translate(-35, 10) rotate(90, 35, -10)"></use><use xlink:href="#Pattern1627Element2" x="-12.42496109008789" y="-29.811504364013672" transform="translate(0, -10) scale(1) translate(0, 10) rotate(90, 0, -10)"></use><use xlink:href="#Pattern1627Element2" x="5.075038909912109" y="-9.811504364013672" transform="translate(17.5, 10) scale(1) translate(-17.5, -10) rotate(90, 17.5, 10)"></use><use xlink:href="#Pattern1627Element2" x="-29.92496109008789" y="-9.811504364013672" transform="translate(-17.5, 10) scale(1) translate(17.5, -10) rotate(90, -17.5, 10)"></use><use xlink:href="#Pattern1627Element2" x="40.07503890991211" y="-9.811504364013672" transform="translate(52.5, 10) scale(1) translate(-52.5, -10) rotate(90, 52.5, 10)"></use><use xlink:href="#Pattern1627Element2" x="22.57503890991211" y="10.188495635986328" transform="translate(35, 30) scale(1) translate(-35, -30) rotate(90, 35, 30)"></use><use xlink:href="#Pattern1627Element2" x="-12.42496109008789" y="10.188495635986328" transform="translate(0, 30) scale(1) translate(0, -30) rotate(90, 0, 30)"></use><use xlink:href="#Pattern1627Element2" x="5.075038909912109" y="30.188495635986328" transform="translate(17.5, 50) scale(1) translate(-17.5, -50) rotate(90, 17.5, 50)"></use><use xlink:href="#Pattern1627Element2" x="5.075038909912109" y="30.188495635986328" transform="translate(17.5, 50) scale(1) translate(-17.5, -50) rotate(90, 17.5, 50)"></use></g></g></pattern><symbol id="Pattern1627Element2"><g class="color_3 fill_color_3" fill="#a4de71"><path d="M13.569,19.50333595275879C12.025,18.539,11.334,16.645,11.885,14.913703918457031L5.83,11.130080223083496A5.0000000792066315,5.0000000792066315,0,0,1,4.239,4.24A5.0000000792066315,5.0000000792066315,0,0,1,11.129,2.65L15.369,5.299194812774658L8.48,6.8898396492004395L10.069,4.3456950187683105A3.000000047523979,3.000000047523979,0,0,0,5.935,5.3A3.000000047523979,3.000000047523979,0,0,0,6.89,9.434L12.945,13.217607498168945C14.273,11.96,16.282,11.765,17.834,12.734848976135254C19.708,13.906,20.246,16.365,19.081,18.230819702148438C17.904,20.113,15.443,20.674,13.569,19.50333595275879M13.992,15.051304817199707A2.0000000316826525,2.0000000316826525,0,0,0,14.629,17.807A2.0000000316826525,2.0000000316826525,0,0,0,17.385,17.171A2.0000000316826525,2.0000000316826525,0,0,0,16.748,14.415A2.0000000316826525,2.0000000316826525,0,0,0,13.992,15.051Z"></path><path d="M11.281,20.11967658996582C12.825,21.084,13.516,22.978,12.965,24.709308624267578L19.02,28.492931365966797A5.0000000792066315,5.0000000792066315,0,0,1,20.611,35.383A5.0000000792066315,5.0000000792066315,0,0,1,13.721,36.973L9.48,34.32381820678711L16.37,32.73317337036133L14.781,35.27731704711914A3.000000047523979,3.000000047523979,0,0,0,18.914,34.323A3.000000047523979,3.000000047523979,0,0,0,17.96,30.189L11.905,26.405405044555664C10.577,27.663,8.568,27.858,7.016,26.88816261291504C5.142,25.717,4.603,23.258,5.769,21.39219093322754C6.946,19.51,9.407,18.949,11.281,20.11967658996582M10.858,24.571706771850586A2.0000000316826525,2.0000000316826525,0,0,0,10.221,21.816A2.0000000316826525,2.0000000316826525,0,0,0,7.465,22.452A2.0000000316826525,2.0000000316826525,0,0,0,8.102,25.208A2.0000000316826525,2.0000000316826525,0,0,0,10.858,24.572Z"></path></g></symbol></defs><rect width="100%" height="100%" id="Pattern1627RctLayer1" fill="url(#Pattern1627Layer1)"></rect><rect width="100%" height="100%" id="Pattern1627RctLayer2" fill="url(#Pattern1627Layer2)"></rect></svg>